<svg xmlns="http://www.w3.org/2000/svg" width="1100" height="620" viewBox="0 0 1100 620">
  <rect width="100%" height="100%" fill="#ffffff"/>
  <text x="70" y="38" font-family="Arial" font-size="24" fill="#111111">Portfolio Equity Curve</text>
  <text x="70" y="62" font-family="Arial" font-size="13" fill="#555555">2017-06-12 to 2026-05-14 | Final equity: 473,819.50 | Max DD: -11.41%</text>
  <line x1="70" y1="550" x2="1030" y2="550" stroke="#888888" stroke-width="1"/>
  <line x1="70" y1="70" x2="70" y2="550" stroke="#888888" stroke-width="1"/>
  <polyline points="70.00,546.45 73.31,547.65 76.62,548.83 79.93,550.00 83.24,548.92 86.55,545.85 89.86,547.06 93.17,548.24 96.48,546.64 99.79,544.37 103.10,543.77 106.41,541.16 109.72,538.89 113.03,538.26 116.34,535.46 119.66,531.71 122.97,529.23 126.28,527.09 129.59,524.82 132.90,522.28 136.21,519.67 139.52,516.98 142.83,518.47 146.14,520.06 149.45,521.52 152.76,522.96 156.07,524.39 159.38,522.95 162.69,520.05 166.00,517.74 169.31,519.23 172.62,520.69 175.93,520.31 179.24,521.76 182.55,521.72 185.86,520.20 189.17,521.66 192.48,519.04 195.79,516.96 199.10,518.45 202.41,517.08 205.72,513.75 209.03,515.55 212.34,513.65 215.66,509.11 218.97,509.28 222.28,510.86 225.59,507.65 228.90,510.14 232.21,507.17 235.52,503.56 238.83,505.19 242.14,505.02 245.45,506.63 248.76,506.41 252.07,505.57 255.38,507.18 258.69,507.20 262.00,506.98 265.31,506.94 268.62,508.53 271.93,505.34 275.24,502.03 278.55,498.21 281.86,499.88 285.17,499.86 288.48,501.52 291.79,499.30 295.10,494.67 298.41,491.79 301.72,491.83 305.03,493.57 308.34,495.68 311.66,497.38 314.97,499.07 318.28,500.74 321.59,502.39 324.90,498.55 328.21,495.52 331.52,494.01 334.83,491.90 338.14,489.21 341.45,484.35 344.76,481.61 348.07,477.65 351.38,475.59 354.69,470.75 358.00,467.73 361.31,464.00 364.62,464.19 367.93,466.31 371.24,468.71 374.55,470.70 377.86,470.05 381.17,472.53 384.48,472.13 387.79,471.44 391.10,475.55 394.41,475.95 397.72,476.22 401.03,473.86 404.34,470.18 407.66,467.53 410.97,465.34 414.28,462.23 417.59,464.27 420.90,462.38 424.21,458.59 427.52,456.01 430.83,451.78 434.14,445.73 437.45,444.87 440.76,441.76 444.07,438.71 447.38,435.85 450.69,434.80 454.00,432.12 457.31,427.52 460.62,423.48 463.93,419.87 467.24,418.41 470.55,420.89 473.86,423.34 477.17,425.76 480.48,428.16 483.79,425.56 487.10,423.80 490.41,421.99 493.72,419.27 497.03,421.73 500.34,424.17 503.66,423.22 506.97,419.03 510.28,411.73 513.59,410.47 516.90,407.86 520.21,400.71 523.52,393.39 526.83,396.11 530.14,391.45 533.45,387.17 536.76,387.12 540.07,388.52 543.38,391.30 546.69,394.04 550.00,393.84 553.31,385.79 556.62,381.58 559.93,384.42 563.24,377.93 566.55,372.84 569.86,367.79 573.17,361.27 576.48,354.71 579.79,345.74 583.10,341.97 586.41,332.28 589.72,322.37 593.03,318.25 596.34,311.94 599.66,311.61 602.97,305.94 606.28,298.91 609.59,296.22 612.90,296.33 616.21,288.93 619.52,292.70 622.83,289.27 626.14,285.37 629.45,289.17 632.76,292.94 636.07,296.67 639.38,300.36 642.69,299.13 646.00,297.83 649.31,297.88 652.62,297.70 655.93,303.93 659.24,307.55 662.55,311.13 665.86,314.68 669.17,318.19 672.48,321.67 675.79,325.11 679.10,328.52 682.41,325.38 685.72,328.78 689.03,325.30 692.34,321.48 695.66,316.91 698.97,313.24 702.28,306.75 705.59,296.56 708.90,289.44 712.21,290.56 715.52,294.65 718.83,290.95 722.14,285.32 725.45,289.12 728.76,289.88 732.07,293.64 735.38,294.13 738.69,293.29 742.00,297.01 745.31,296.36 748.62,290.66 751.93,285.90 755.24,279.64 758.55,272.99 761.86,263.75 765.17,254.60 768.48,253.27 771.79,248.15 775.10,241.26 778.41,232.88 781.72,229.16 785.03,225.11 788.34,229.51 791.66,221.82 794.97,208.60 798.28,209.20 801.59,213.77 804.90,215.41 808.21,219.92 811.52,216.61 814.83,207.47 818.14,199.61 821.45,195.95 824.76,200.65 828.07,205.30 831.38,209.91 834.69,214.47 838.00,224.13 841.31,224.45 844.62,222.29 847.93,221.60 851.24,229.62 854.55,233.99 857.86,222.37 861.17,210.33 864.48,197.06 867.79,201.75 871.10,199.73 874.41,189.84 877.72,178.26 881.03,164.18 884.34,156.44 887.66,141.19 890.97,137.99 894.28,143.27 897.59,134.02 900.90,134.22 904.21,127.22 907.52,128.81 910.83,134.18 914.14,133.94 917.45,134.04 920.76,139.36 924.07,144.63 927.38,149.84 930.69,155.00 934.00,160.11 937.31,160.03 940.62,165.09 943.93,160.81 947.24,148.98 950.55,154.15 953.86,139.04 957.17,125.97 960.48,119.54 963.79,108.58 967.10,109.09 970.41,102.94 973.72,90.76 977.03,90.95 980.34,84.90 983.66,90.71 986.97,83.13 990.28,82.84 993.59,82.14 996.90,81.86 1000.21,77.08 1003.52,70.00 1006.83,75.96 1010.14,81.86 1013.45,87.70 1016.76,93.48 1020.07,93.50 1023.38,99.60 1026.69,105.26 1030.00,94.24" fill="none" stroke="#1266f1" stroke-width="3"/>
  <text x="70" y="590" font-family="Arial" font-size="12" fill="#555555">2017-06-12</text>
  <text x="955" y="590" font-family="Arial" font-size="12" fill="#555555">2026-05-14</text>
  <text x="12" y="75" font-family="Arial" font-size="12" fill="#555555">493,908</text>
  <text x="12" y="555" font-family="Arial" font-size="12" fill="#555555">96,060</text>
</svg>
