<svg xmlns="http://www.w3.org/2000/svg" width="1100" height="620" viewBox="0 0 1100 620">
  <rect width="100%" height="100%" fill="#ffffff"/>
  <text x="70" y="38" font-family="Arial" font-size="24" fill="#111111">Portfolio Equity Curve</text>
  <text x="70" y="62" font-family="Arial" font-size="13" fill="#555555">2017-06-12 to 2026-05-14 | Final equity: 472,828.49 | Max DD: -9.93%</text>
  <line x1="70" y1="550" x2="1030" y2="550" stroke="#888888" stroke-width="1"/>
  <line x1="70" y1="70" x2="70" y2="550" stroke="#888888" stroke-width="1"/>
  <polyline points="70.00,547.58 73.89,548.80 77.77,550.00 81.66,548.89 85.55,545.74 89.43,546.97 93.32,545.30 97.21,542.95 101.09,542.32 104.98,539.62 108.87,537.26 112.75,534.37 116.64,530.49 120.53,527.92 124.41,525.71 128.30,523.37 132.19,520.75 136.07,518.05 139.96,515.27 143.85,516.80 147.73,518.45 151.62,519.96 155.51,521.45 159.39,519.95 163.28,516.92 167.17,514.51 171.05,516.06 174.94,515.65 178.83,517.19 182.71,517.14 186.60,515.54 190.49,517.08 194.37,514.31 198.26,512.12 202.15,510.66 206.03,507.12 209.92,505.07 213.81,500.17 217.69,500.36 221.58,502.06 225.47,498.60 229.35,495.35 233.24,491.40 237.13,493.18 241.01,493.00 244.90,494.76 248.79,494.52 252.67,493.61 256.56,495.36 260.45,495.39 264.33,495.14 268.22,491.61 272.11,487.96 275.99,483.73 279.88,485.58 283.77,485.55 287.65,487.39 291.54,484.94 295.43,479.82 299.31,476.63 303.20,476.68 307.09,478.61 310.97,480.94 314.86,482.82 318.74,484.68 322.63,486.53 326.52,488.35 330.40,484.11 334.29,480.76 338.18,478.45 342.06,475.50 345.95,470.18 349.84,467.17 353.72,462.83 357.61,460.58 361.50,455.27 365.38,451.97 369.27,447.87 373.16,448.08 377.04,450.41 380.93,453.04 384.82,455.22 388.70,457.92 392.59,457.48 396.48,456.73 400.36,461.22 404.25,461.66 408.14,461.95 412.02,457.99 415.91,455.12 419.80,452.76 423.68,449.41 427.57,451.61 431.46,447.55 435.34,444.80 439.23,440.28 443.12,433.81 447.00,430.50 450.89,427.25 454.78,424.21 458.66,421.36 462.55,416.49 466.44,412.21 470.32,408.38 474.21,410.98 478.10,413.56 481.98,416.12 485.87,418.65 489.76,415.91 493.64,414.05 497.53,411.20 501.42,413.78 505.30,416.33 509.19,415.34 513.08,410.96 516.96,403.32 520.85,402.00 524.74,394.59 528.62,387.01 532.51,389.84 536.40,385.01 540.28,380.57 544.17,380.52 548.06,383.41 551.94,386.27 555.83,386.06 559.72,377.68 563.60,373.29 567.49,366.48 571.38,361.12 575.26,355.82 579.15,348.96 583.04,342.07 586.92,332.64 590.81,328.68 594.70,318.50 598.58,314.29 602.47,307.85 606.36,307.51 610.24,301.73 614.13,294.55 618.02,294.65 621.90,287.15 625.79,283.64 629.68,279.65 633.56,283.54 637.45,287.40 641.34,291.21 645.22,294.99 649.11,293.73 653.00,293.79 656.88,293.60 660.77,299.95 664.66,303.64 668.54,307.30 672.43,310.92 676.32,314.50 680.20,318.04 684.09,314.78 687.98,318.32 691.86,314.70 695.75,310.72 699.64,305.97 703.52,302.15 707.41,295.39 711.30,284.79 715.18,277.38 719.07,281.64 722.96,277.78 726.84,271.90 730.73,275.87 734.62,276.67 738.50,280.59 742.39,281.10 746.28,284.98 750.16,284.29 754.05,278.36 757.94,273.40 761.82,266.88 765.71,259.96 769.60,250.34 773.48,240.81 777.37,235.49 781.26,228.34 785.14,219.64 789.03,215.77 792.91,211.57 796.80,216.14 800.69,208.16 804.57,194.43 808.46,195.06 812.35,199.80 816.23,201.51 820.12,206.18 824.01,202.75 827.89,193.26 831.78,185.11 835.67,181.31 839.55,186.18 843.44,191.01 847.33,195.80 851.21,200.53 855.10,210.56 858.99,210.89 862.87,208.64 866.76,207.93 870.65,212.54 874.53,200.14 878.42,186.48 882.31,184.39 886.19,172.59 890.08,158.25 893.97,150.38 897.85,134.84 901.74,140.19 905.63,130.82 909.51,131.03 913.40,123.95 917.29,129.40 921.17,129.15 925.06,129.25 928.95,134.65 932.83,140.00 936.72,145.29 940.61,150.53 944.49,146.10 948.38,133.85 952.27,139.20 956.15,126.06 960.04,119.58 963.93,108.56 967.81,109.07 971.70,102.88 975.59,90.63 979.47,90.82 983.36,83.20 987.25,82.91 991.13,82.21 995.02,81.92 998.91,77.11 1002.79,70.00 1006.68,75.99 1010.57,81.92 1014.45,87.80 1018.34,87.81 1022.23,94.01 1026.11,99.76 1030.00,88.56" fill="none" stroke="#1266f1" stroke-width="3"/>
  <text x="70" y="590" font-family="Arial" font-size="12" fill="#555555">2017-06-12</text>
  <text x="955" y="590" font-family="Arial" font-size="12" fill="#555555">2026-05-14</text>
  <text x="12" y="75" font-family="Arial" font-size="12" fill="#555555">487,946</text>
  <text x="12" y="555" font-family="Arial" font-size="12" fill="#555555">97,030</text>
</svg>
