<svg xmlns="http://www.w3.org/2000/svg" width="1100" height="620" viewBox="0 0 1100 620">
  <rect width="100%" height="100%" fill="#ffffff"/>
  <text x="70" y="38" font-family="Arial" font-size="24" fill="#111111">Portfolio Equity Curve</text>
  <text x="70" y="62" font-family="Arial" font-size="13" fill="#555555">2017-06-12 to 2026-05-14 | Final equity: 432,660.43 | Max DD: -8.95%</text>
  <line x1="70" y1="550" x2="1030" y2="550" stroke="#888888" stroke-width="1"/>
  <line x1="70" y1="70" x2="70" y2="550" stroke="#888888" stroke-width="1"/>
  <polyline points="70.00,545.92 74.02,547.26 78.03,548.58 82.05,549.90 86.07,548.69 90.08,550.00 94.10,548.23 98.12,547.57 102.13,544.75 106.15,542.29 110.17,541.61 114.18,538.58 118.20,534.52 122.22,531.83 126.23,528.61 130.25,526.25 134.27,523.74 138.28,520.93 142.30,518.01 146.32,519.76 150.33,521.36 154.35,522.94 158.37,524.51 162.38,522.93 166.40,519.75 170.42,517.22 174.44,518.84 178.45,520.45 182.47,520.03 186.49,521.63 190.50,523.21 194.52,521.57 198.54,523.15 202.55,520.93 206.57,518.09 210.59,516.59 214.60,512.94 218.62,514.92 222.64,512.83 226.65,507.85 230.67,508.04 234.69,509.77 238.70,506.25 242.72,502.95 246.74,498.93 250.75,500.74 254.77,500.56 258.79,502.35 262.80,502.10 266.82,502.13 270.84,501.88 274.85,501.91 278.87,503.94 282.89,500.28 286.90,496.59 290.92,492.31 294.94,494.18 298.95,494.15 302.97,496.01 306.99,493.36 311.00,488.18 315.02,488.23 319.04,488.08 323.05,490.42 327.07,492.32 331.09,487.92 335.10,484.44 339.12,482.70 343.14,480.28 347.15,477.20 351.17,471.63 355.19,468.48 359.21,463.94 363.22,461.59 367.24,456.03 371.26,452.58 375.27,448.29 379.29,448.52 383.31,450.95 387.32,453.70 391.34,455.98 395.36,455.51 399.37,454.72 403.39,455.19 407.41,455.51 411.42,457.76 415.44,454.74 419.46,452.26 423.47,448.88 427.49,448.52 431.51,444.21 435.52,441.28 439.54,436.61 443.56,429.74 447.57,426.22 451.59,422.76 455.61,419.54 459.62,416.51 463.64,411.34 467.66,406.79 471.67,402.71 475.69,405.48 479.71,408.23 483.72,410.94 487.74,408.00 491.76,410.72 495.77,409.67 499.79,405.00 503.81,396.87 507.82,395.47 511.84,389.93 515.86,381.89 519.87,378.60 523.89,381.61 527.91,376.46 531.92,371.93 535.94,375.01 539.96,374.96 543.97,378.01 547.99,381.03 552.01,380.81 556.03,371.96 560.04,367.33 564.06,360.13 568.08,354.47 572.09,348.87 576.11,341.63 580.13,334.35 584.14,324.39 588.16,320.21 592.18,309.46 596.19,298.45 600.21,293.03 604.23,286.02 608.24,285.65 612.26,279.34 616.28,271.51 620.29,271.63 624.31,263.46 628.33,267.62 632.34,271.74 636.36,270.36 640.38,270.42 644.39,270.23 648.41,277.15 652.43,281.17 656.44,285.16 660.46,289.10 664.48,293.01 668.49,296.88 672.51,300.71 676.53,296.46 680.54,291.37 684.56,287.29 688.58,280.06 692.59,268.72 696.61,260.80 700.63,264.99 704.64,269.50 708.66,265.41 712.68,259.19 716.69,263.39 720.71,263.94 724.73,272.49 728.74,276.56 732.76,275.84 736.78,269.61 740.79,264.41 744.81,257.57 748.83,250.31 752.85,240.21 756.86,230.20 760.88,228.75 764.90,223.15 768.91,215.62 772.93,206.46 776.95,202.39 780.96,196.93 784.98,201.76 789.00,193.33 793.01,178.85 797.03,183.85 801.05,185.51 805.06,187.31 809.08,192.23 813.10,182.32 817.11,173.79 821.13,178.85 825.15,183.86 829.16,188.82 833.18,199.33 837.20,199.68 841.21,197.32 845.23,196.57 849.25,183.45 853.26,189.60 857.28,194.50 861.30,182.70 865.31,168.34 869.33,160.46 873.35,144.91 877.36,141.89 881.38,147.26 885.40,137.84 889.41,138.05 893.43,130.91 897.45,136.40 901.46,136.15 905.48,136.26 909.50,141.69 913.51,147.07 917.53,152.40 921.55,157.68 925.56,162.90 929.58,158.48 933.60,146.27 937.62,151.61 941.63,136.23 945.65,122.75 949.67,116.11 953.68,104.80 957.70,105.34 961.72,98.99 965.73,86.42 969.75,86.61 973.77,80.38 977.78,72.48 981.80,72.17 985.82,71.45 989.83,77.54 993.85,77.24 997.87,70.00 1001.88,76.10 1005.90,82.13 1009.92,88.11 1013.93,94.03 1017.95,94.05 1021.97,100.29 1025.98,106.08 1030.00,94.80" fill="none" stroke="#1266f1" stroke-width="3"/>
  <text x="70" y="590" font-family="Arial" font-size="12" fill="#555555">2017-06-12</text>
  <text x="955" y="590" font-family="Arial" font-size="12" fill="#555555">2026-05-14</text>
  <text x="12" y="75" font-family="Arial" font-size="12" fill="#555555">451,004</text>
  <text x="12" y="555" font-family="Arial" font-size="12" fill="#555555">95,982</text>
</svg>
