<svg xmlns="http://www.w3.org/2000/svg" width="1100" height="620" viewBox="0 0 1100 620">
  <rect width="100%" height="100%" fill="#ffffff"/>
  <text x="70" y="38" font-family="Arial" font-size="24" fill="#111111">Portfolio Equity Curve</text>
  <text x="70" y="62" font-family="Arial" font-size="13" fill="#555555">2017-06-12 to 2026-05-14 | Final equity: 439,342.36 | Max DD: -8.03%</text>
  <line x1="70" y1="550" x2="1030" y2="550" stroke="#888888" stroke-width="1"/>
  <line x1="70" y1="70" x2="70" y2="550" stroke="#888888" stroke-width="1"/>
  <polyline points="70.00,547.35 74.38,548.68 78.77,550.00 83.15,548.79 87.53,546.98 91.92,546.32 96.30,543.45 100.68,540.95 105.07,537.89 109.45,533.78 113.84,531.06 118.22,527.80 122.60,525.41 126.99,522.88 131.37,520.04 135.75,517.08 140.14,518.84 144.52,520.46 148.90,522.07 153.29,520.45 157.67,517.20 162.05,514.62 166.44,516.28 170.82,515.84 175.21,517.49 179.59,519.12 183.97,517.43 188.36,519.06 192.74,516.77 197.12,513.84 201.51,512.29 205.89,508.52 210.27,506.35 214.66,501.14 219.04,501.34 223.42,503.14 227.81,499.48 232.19,496.02 236.58,491.82 240.96,493.71 245.34,493.52 249.73,495.40 254.11,495.14 258.49,495.17 262.88,494.91 267.26,497.03 271.64,493.21 276.03,489.35 280.41,484.88 284.79,486.84 289.18,486.81 293.56,488.75 297.95,485.98 302.33,480.57 306.71,480.62 311.10,480.46 315.48,482.91 319.86,484.89 324.25,480.29 328.63,476.66 333.01,474.16 337.40,470.97 341.78,465.21 346.16,461.95 350.55,457.24 354.93,454.81 359.32,449.06 363.70,445.48 368.08,441.04 372.47,441.28 376.85,443.79 381.23,446.64 385.62,449.00 390.00,448.52 394.38,447.70 398.77,448.19 403.15,448.52 407.53,450.84 411.92,447.72 416.30,445.15 420.68,441.66 425.07,441.28 429.45,436.82 433.84,433.79 438.22,428.95 442.60,421.83 446.99,418.19 451.37,414.61 455.75,411.27 460.14,408.14 464.52,402.78 468.90,398.07 473.29,393.85 477.67,396.72 482.05,399.56 486.44,402.37 490.82,399.33 495.21,402.15 499.59,401.05 503.97,396.22 508.36,387.80 512.74,386.36 517.12,378.19 521.51,374.85 525.89,377.90 530.27,372.67 534.66,368.08 539.04,368.02 543.42,371.15 547.81,374.25 552.19,374.03 556.58,364.94 560.96,360.20 565.34,352.81 569.73,347.01 574.11,341.26 578.49,333.84 582.88,326.37 587.26,316.16 591.64,311.86 596.03,300.83 600.41,295.43 604.79,288.44 609.18,288.07 613.56,281.79 617.95,273.99 622.33,274.11 626.71,265.97 631.10,270.11 635.48,274.22 639.86,272.85 644.25,272.91 648.63,272.71 653.01,279.61 657.40,283.62 661.78,287.59 666.16,291.52 670.55,295.41 674.93,299.26 679.32,294.99 683.70,289.87 688.08,285.76 692.47,278.49 696.85,267.08 701.23,259.10 705.62,263.32 710.00,267.86 714.38,263.74 718.77,257.48 723.15,261.72 727.53,262.26 731.92,266.45 736.30,265.71 740.68,259.31 745.07,253.96 749.45,246.94 753.84,239.47 758.22,229.10 762.60,218.81 766.99,213.08 771.37,205.38 775.75,195.99 780.14,191.82 784.52,186.23 788.90,191.18 793.29,182.55 797.67,167.71 802.05,172.84 806.44,174.54 810.82,176.38 815.21,181.42 819.59,171.27 823.97,162.54 828.36,167.72 832.74,172.85 837.12,177.93 841.51,188.69 845.89,189.05 850.27,186.63 854.66,185.86 859.04,172.43 863.42,177.51 867.81,165.27 872.19,150.39 876.58,142.21 880.96,126.09 885.34,131.63 889.73,121.91 894.11,122.13 898.49,114.78 902.88,120.43 907.26,120.17 911.64,120.29 916.03,125.89 920.41,131.44 924.79,136.93 929.18,142.37 933.56,137.77 937.95,125.05 942.33,130.61 946.71,116.97 951.10,110.25 955.48,98.80 959.86,99.34 964.25,92.91 968.63,80.20 973.01,80.39 977.40,72.49 981.78,72.18 986.16,71.45 990.55,77.55 994.93,77.25 999.32,70.00 1003.70,76.11 1008.08,82.15 1012.47,88.14 1016.85,88.16 1021.23,94.47 1025.62,100.33 1030.00,88.92" fill="none" stroke="#1266f1" stroke-width="3"/>
  <text x="70" y="590" font-family="Arial" font-size="12" fill="#555555">2017-06-12</text>
  <text x="955" y="590" font-family="Arial" font-size="12" fill="#555555">2026-05-14</text>
  <text x="12" y="75" font-family="Arial" font-size="12" fill="#555555">453,389</text>
  <text x="12" y="555" font-family="Arial" font-size="12" fill="#555555">97,030</text>
</svg>
